<svg width="30" height="30" viewBox="0 0 30 30" fill="none" xmlns="http://www.w3.org/2000/svg">
<g clip-path="url(#clip0)">
<path d="M13.2561 20.7221L13.0493 12.0308C13.0434 11.7881 12.8402 11.5955 12.5995 11.6019C12.3568 11.6077 12.1648 11.8091 12.1706 12.0516L12.3322 18.8435C12.1589 18.6576 11.9655 18.4881 11.7524 18.3389C11.0766 17.8657 10.2788 17.6406 9.46759 17.6858L6.67187 1.8178C7.33356 2.04925 8.3075 2.24342 9.42616 2.00114C10.386 1.79337 11.1056 1.3374 11.5677 0.957538L11.8494 2.55625C11.9225 2.97121 11.9647 3.39531 11.9747 3.81694L12.1212 9.97128C12.1269 10.2104 12.3225 10.4003 12.5603 10.4003C12.5638 10.4003 12.5674 10.4003 12.571 10.4002C12.8136 10.3944 13.0056 10.193 12.9998 9.95042L12.8534 3.79608C12.8423 3.33044 12.7957 2.86205 12.715 2.40379L12.407 0.655958C12.3576 0.37518 12.1599 0.141803 11.8913 0.0469996C11.6216 -0.0481558 11.3205 0.00973429 11.1049 0.197994C10.7293 0.525882 10.1009 0.955897 9.24024 1.14222C8.03451 1.4032 7.02788 1.04818 6.53517 0.813164C6.22264 0.664162 5.85444 0.717247 5.59733 0.948514C5.0932 1.40191 4.24336 1.97266 3.0572 2.1171C2.3808 2.19942 1.7037 2.12969 1.04487 1.90979C0.776577 1.82026 0.48865 1.87686 0.274609 2.06132C0.0613882 2.24518 -0.0366968 2.52057 0.0121699 2.79807L0.32787 4.58955C0.40867 5.0481 0.524978 5.50419 0.67357 5.94522L6.07973 21.9883L6.96085 26.9896C7.25458 28.6991 8.79851 30.0012 10.541 30.0012C12.7698 30.0012 14.5387 27.9421 14.1375 25.7251L13.2561 20.7221ZM6.3066 19.9092L1.50647 5.6645C1.37194 5.26525 1.26659 4.85217 1.19335 4.43698L0.902728 2.78705C1.64352 3.01404 2.40342 3.08213 3.16349 2.98955C4.30734 2.85027 5.18659 2.38012 5.7976 1.92069L8.60211 17.8386C7.54438 18.1595 6.71839 18.9366 6.3066 19.9092ZM6.93953 21.8028C6.67509 20.3023 7.68079 18.866 9.18136 18.6012C9.18224 18.601 9.18341 18.6008 9.18458 18.6006C9.9112 18.4731 10.6439 18.6356 11.2484 19.0587C11.8532 19.4823 12.2569 20.1161 12.3851 20.8434L12.4324 21.1121C11.6063 20.4352 10.5389 20.1429 9.48868 20.3399C9.48774 20.34 9.48651 20.3403 9.48528 20.3405C8.39873 20.5329 7.51016 21.1919 6.98734 22.0743L6.93953 21.8028ZM10.5064 29.122C9.20978 29.1003 8.04951 28.1388 7.82645 26.837L7.39843 24.4073C7.134 22.9067 8.13969 21.4704 9.64026 21.2056C9.6412 21.2055 9.64231 21.2053 9.64354 21.2051C10.3701 21.0775 11.1029 21.2401 11.7072 21.6632C12.3121 22.0868 12.7158 22.7206 12.844 23.4478L13.272 25.8775C13.5709 27.5645 12.2272 29.1509 10.5064 29.122ZM29.7251 2.06126C29.5111 1.87686 29.2234 1.8202 28.9548 1.90974C28.5052 2.05985 28.0409 2.14048 27.5748 2.14938C27.3321 2.15401 27.1391 2.35446 27.1438 2.59715C27.1485 2.83978 27.3512 3.03326 27.5916 3.0281C28.0998 3.01838 28.6055 2.93734 29.097 2.78693L28.8063 4.43686C28.7331 4.85211 28.6277 5.26513 28.4932 5.66444L23.6932 19.9089C23.2812 18.9354 22.4548 18.1579 21.3977 17.8382L24.2023 1.91987C24.52 2.1577 24.9338 2.41627 25.4353 2.6227C25.6597 2.7151 25.9166 2.60805 26.009 2.38358C26.1013 2.15911 25.9943 1.90229 25.7699 1.80989C25.1455 1.5529 24.6816 1.19959 24.4024 0.948456C24.1453 0.717188 23.7771 0.664103 23.4645 0.813105C22.9719 1.04806 21.9654 1.40308 20.7595 1.14211C19.8989 0.95578 19.2705 0.525764 18.8949 0.197936C18.6794 0.0096757 18.378 -0.0481558 18.1084 0.046941C17.8398 0.141745 17.6422 0.375121 17.5926 0.655958L17.2849 2.40373C17.2041 2.86205 17.1575 3.33044 17.1464 3.79608L16.7437 20.7225C16.7437 20.7225 15.9018 25.5011 15.8623 25.725C15.5137 27.7032 16.8401 29.5957 18.8181 29.9449C20.7421 30.2847 22.6958 28.9365 23.0389 26.9896C23.2864 25.5852 23.6833 23.3208 23.92 21.9883L29.3262 5.94516C29.4748 5.50419 29.5911 5.04804 29.6719 4.58944L29.9876 2.79801C30.0364 2.52051 29.9383 2.24512 29.7251 2.06126V2.06126ZM18.025 3.817C18.035 3.39542 18.0772 2.97127 18.1504 2.55631L18.432 0.957596C18.8942 1.33746 19.6138 1.79343 20.5736 2.0012C21.6925 2.24342 22.6663 2.04925 23.3279 1.81786L20.5321 17.6858C19.7208 17.6406 18.9231 17.8656 18.2473 18.3389C18.0343 18.488 17.8408 18.6575 17.6675 18.8434L18.025 3.817ZM22.6013 24.4073L22.1733 26.837C21.9206 28.3082 20.4422 29.3469 18.973 29.0798L18.9718 29.0796C18.9711 29.0794 18.9703 29.0793 18.9696 29.0792C17.4691 28.8144 16.4634 27.3781 16.7278 25.8775L17.1558 23.4478C17.284 22.7206 17.6877 22.0868 18.2926 21.6632C18.8987 21.2388 19.639 21.0574 20.3537 21.2045C20.3556 21.2049 20.3575 21.2053 20.3595 21.2056C21.86 21.4704 22.8657 22.9067 22.6013 24.4073V24.4073ZM23.0602 21.8028L23.0125 22.0739C22.4897 21.1912 21.6017 20.5324 20.5169 20.341C20.515 20.3406 20.513 20.3403 20.5111 20.3399C19.4608 20.1546 18.392 20.435 17.5674 21.1121L17.6147 20.8434C17.7429 20.1162 18.1465 19.4824 18.7514 19.0588C19.3563 18.6352 20.0898 18.4726 20.8125 18.6001C20.8145 18.6005 20.8164 18.6009 20.8184 18.6012C22.3189 18.866 23.3246 20.3023 23.0602 21.8028V21.8028Z" fill="white"/>
</g>
<defs>
<clipPath id="clip0">
<rect width="30" height="30" fill="white"/>
</clipPath>
</defs>
</svg>
