<svg width="69" height="74" viewBox="0 0 69 74" fill="none" xmlns="http://www.w3.org/2000/svg">
<ellipse cx="39" cy="25" rx="18" ry="25" fill="white"/>
<circle r="3.5" transform="matrix(-1 0 0 1 11 29)" stroke="white" stroke-width="3"/>
<circle r="1.5" transform="matrix(-1 0 0 1 3 20)" stroke="white" stroke-width="3"/>
<circle r="2.5" transform="matrix(-1 0 0 1 8 10)" stroke="white" stroke-width="3"/>
<rect x="44" y="43" width="21" height="31" rx="7" fill="white"/>
<rect x="44" y="46" width="18" height="27" rx="6" stroke="#5269FF" stroke-width="2"/>
<path d="M8 72.5C8 55.6553 21.6553 42 38.5 42V42C55.3447 42 69 55.6553 69 72.5V74H8V72.5Z" fill="white"/>
<rect x="34" y="32" width="10" height="6" rx="2" fill="#5269FF"/>
<path d="M19.6038 18.6766C19.6038 13.9159 23.463 10.0566 28.2237 10.0566H38.9434V20.5C38.9434 25.8405 34.6141 30.1698 29.2736 30.1698V30.1698C23.9331 30.1698 19.6038 25.8405 19.6038 20.5V18.6766Z" fill="#5269FF"/>
<path d="M38.9434 10.0566H49.663C54.4237 10.0566 58.283 13.9159 58.283 18.6766V20.5C58.283 25.8405 53.9537 30.1698 48.6132 30.1698V30.1698C43.2727 30.1698 38.9434 25.8405 38.9434 20.5V10.0566Z" fill="#5269FF"/>
<path d="M38.9434 23.6585C40.272 27.7289 44.0992 30.6698 48.6132 30.6698C54.2298 30.6698 58.783 26.1167 58.783 20.5V18.6766C58.783 13.6398 54.6999 9.55664 49.6631 9.55664H38.9434H28.2237C23.1869 9.55664 19.1038 13.6398 19.1038 18.6766V20.5C19.1038 26.1167 23.6569 30.6698 29.2736 30.6698C33.7876 30.6698 37.6147 27.7289 38.9434 23.6585Z" fill="#5269FF" stroke="#5269FF"/>
<path d="M38.4434 10.5566V20.5C38.4434 25.5644 34.3379 29.6698 29.2736 29.6698C24.2092 29.6698 20.1038 25.5644 20.1038 20.5V18.6766C20.1038 14.1921 23.7392 10.5566 28.2237 10.5566H38.4434ZM39.4434 20.5V10.5566H49.6631C54.1476 10.5566 57.783 14.1921 57.783 18.6766V20.5C57.783 25.5644 53.6775 29.6698 48.6132 29.6698C43.5488 29.6698 39.4434 25.5644 39.4434 20.5Z" stroke="white"/>
<path d="M45.132 20.8869C45.132 19.6629 44.769 18.4664 44.089 17.4487C43.409 16.431 42.4425 15.6377 41.3116 15.1693C40.1808 14.7009 38.9365 14.5784 37.736 14.8172C36.5355 15.0559 35.4328 15.6454 34.5673 16.5109C33.7018 17.3764 33.1123 18.4791 32.8736 19.6796C32.6348 20.8801 32.7573 22.1244 33.2257 23.2552C33.6941 24.3861 34.4873 25.3526 35.5051 26.0326C36.5228 26.7126 37.7193 27.0756 38.9433 27.0756L38.9433 20.8869H45.132Z" fill="#5269FF"/>
<rect x="38.9434" y="20.8867" width="1.54717" height="5.41509" rx="0.773585" fill="white"/>
<rect x="38.9434" y="21.2102" width="1.54717" height="5.41509" rx="0.773585" transform="rotate(-12.0613 38.9434 21.2102)" fill="white"/>
<mask id="path-16-inside-1" fill="white">
<path d="M32.7546 21.2736C32.7546 20.1261 33.0949 19.0043 33.7324 18.0502C34.3699 17.0961 35.2761 16.3525 36.3362 15.9133C37.3964 15.4742 38.5629 15.3593 39.6884 15.5832C40.8139 15.807 41.8477 16.3596 42.6591 17.171C43.4705 17.9824 44.023 19.0162 44.2469 20.1417C44.4708 21.2671 44.3559 22.4337 43.9168 23.4939C43.4776 24.554 42.734 25.4601 41.7799 26.0977C40.8258 26.7352 39.704 27.0755 38.5565 27.0755L38.5565 21.2736H32.7546Z"/>
</mask>
<path d="M32.7546 21.2736C32.7546 20.1261 33.0949 19.0043 33.7324 18.0502C34.3699 17.0961 35.2761 16.3525 36.3362 15.9133C37.3964 15.4742 38.5629 15.3593 39.6884 15.5832C40.8139 15.807 41.8477 16.3596 42.6591 17.171C43.4705 17.9824 44.023 19.0162 44.2469 20.1417C44.4708 21.2671 44.3559 22.4337 43.9168 23.4939C43.4776 24.554 42.734 25.4601 41.7799 26.0977C40.8258 26.7352 39.704 27.0755 38.5565 27.0755L38.5565 21.2736H32.7546Z" stroke="#5269FF" stroke-width="2" mask="url(#path-16-inside-1)"/>
<rect x="35" y="11" width="8" height="4" fill="#5269FF"/>
<path d="M40 33.6C40 33.2686 40.2686 33 40.6 33H42C42.5523 33 43 33.4477 43 34V35.5C43 35.7761 42.7761 36 42.5 36V36C42.2239 36 42 35.7761 42 35.5V35.1C42 34.6029 41.5971 34.2 41.1 34.2H40.6C40.2686 34.2 40 33.9314 40 33.6V33.6Z" fill="white"/>
<path d="M57 61.5C57 61.2239 57.2239 61 57.5 61V61C57.7761 61 58 61.2239 58 61.5V74H57V61.5Z" fill="#5269FF"/>
<path d="M20 61.5C20 61.2239 20.2239 61 20.5 61V61C20.7761 61 21 61.2239 21 61.5V74H20V61.5Z" fill="#5269FF"/>
<path d="M39 39C39.5 51.5 45 50.5 60 48" stroke="#5269FF" stroke-width="2"/>
<path d="M37 38H41V39C41 39.5523 40.5523 40 40 40H38C37.4477 40 37 39.5523 37 39V38Z" fill="#5269FF"/>
</svg>
