<svg width="480" height="80" viewBox="0 0 480 80" fill="none" xmlns="http://www.w3.org/2000/svg">
<path d="M254.6 27.304C258.152 27.304 261.256 28.008 263.912 29.416C266.568 30.824 268.616 32.808 270.056 35.368C271.528 37.896 272.264 40.824 272.264 44.152C272.264 47.448 271.528 50.376 270.056 52.936C268.616 55.496 266.552 57.48 263.864 58.888C261.208 60.296 258.12 61 254.6 61H241.976V27.304H254.6ZM254.072 53.896C257.176 53.896 259.592 53.048 261.32 51.352C263.048 49.656 263.912 47.256 263.912 44.152C263.912 41.048 263.048 38.632 261.32 36.904C259.592 35.176 257.176 34.312 254.072 34.312H250.184V53.896H254.072ZM280.931 31.432C279.491 31.432 278.307 31.016 277.379 30.184C276.483 29.32 276.035 28.264 276.035 27.016C276.035 25.736 276.483 24.68 277.379 23.848C278.307 22.984 279.491 22.552 280.931 22.552C282.339 22.552 283.491 22.984 284.387 23.848C285.315 24.68 285.779 25.736 285.779 27.016C285.779 28.264 285.315 29.32 284.387 30.184C283.491 31.016 282.339 31.432 280.931 31.432ZM285.059 64.456C285.059 67.752 284.227 70.12 282.563 71.56C280.899 73.032 278.579 73.768 275.603 73.768H272.387V66.808H274.355C275.251 66.808 275.891 66.632 276.275 66.28C276.659 65.928 276.851 65.352 276.851 64.552V34.216H285.059V64.456ZM317.408 34.216V61H309.2V57.352C308.368 58.536 307.232 59.496 305.792 60.232C304.384 60.936 302.816 61.288 301.088 61.288C299.04 61.288 297.232 60.84 295.664 59.944C294.096 59.016 292.88 57.688 292.016 55.96C291.152 54.232 290.72 52.2 290.72 49.864V34.216H298.88V48.76C298.88 50.552 299.344 51.944 300.272 52.936C301.2 53.928 302.448 54.424 304.016 54.424C305.616 54.424 306.88 53.928 307.808 52.936C308.736 51.944 309.2 50.552 309.2 48.76V34.216H317.408ZM331.512 38.68C332.472 37.208 333.672 36.056 335.112 35.224C336.552 34.36 338.152 33.928 339.912 33.928V42.616H337.656C335.608 42.616 334.072 43.064 333.048 43.96C332.024 44.824 331.512 46.36 331.512 48.568V61H323.304V34.216H331.512V38.68ZM354.731 61.384C352.395 61.384 350.315 60.984 348.491 60.184C346.667 59.384 345.227 58.296 344.171 56.92C343.115 55.512 342.523 53.944 342.395 52.216H350.507C350.603 53.144 351.035 53.896 351.803 54.472C352.571 55.048 353.515 55.336 354.635 55.336C355.659 55.336 356.443 55.144 356.987 54.76C357.563 54.344 357.851 53.816 357.851 53.176C357.851 52.408 357.451 51.848 356.651 51.496C355.851 51.112 354.555 50.696 352.763 50.248C350.843 49.8 349.243 49.336 347.963 48.856C346.683 48.344 345.579 47.56 344.651 46.504C343.723 45.416 343.259 43.96 343.259 42.136C343.259 40.6 343.675 39.208 344.507 37.96C345.371 36.68 346.619 35.672 348.251 34.936C349.915 34.2 351.883 33.832 354.155 33.832C357.515 33.832 360.155 34.664 362.075 36.328C364.027 37.992 365.147 40.2 365.435 42.952H357.851C357.723 42.024 357.307 41.288 356.603 40.744C355.931 40.2 355.035 39.928 353.915 39.928C352.955 39.928 352.219 40.12 351.707 40.504C351.195 40.856 350.939 41.352 350.939 41.992C350.939 42.76 351.339 43.336 352.139 43.72C352.971 44.104 354.251 44.488 355.979 44.872C357.963 45.384 359.579 45.896 360.827 46.408C362.075 46.888 363.163 47.688 364.091 48.808C365.051 49.896 365.547 51.368 365.579 53.224C365.579 54.792 365.131 56.2 364.235 57.448C363.371 58.664 362.107 59.624 360.443 60.328C358.811 61.032 356.907 61.384 354.731 61.384ZM378.809 25.48V61H370.601V25.48H378.809ZM383.125 47.56C383.125 44.808 383.637 42.392 384.661 40.312C385.717 38.232 387.141 36.632 388.933 35.512C390.725 34.392 392.725 33.832 394.933 33.832C396.821 33.832 398.469 34.216 399.877 34.984C401.317 35.752 402.421 36.76 403.189 38.008V34.216H411.397V61H403.189V57.208C402.389 58.456 401.269 59.464 399.829 60.232C398.421 61 396.773 61.384 394.885 61.384C392.709 61.384 390.725 60.824 388.933 59.704C387.141 58.552 385.717 56.936 384.661 54.856C383.637 52.744 383.125 50.312 383.125 47.56ZM403.189 47.608C403.189 45.56 402.613 43.944 401.461 42.76C400.341 41.576 398.965 40.984 397.333 40.984C395.701 40.984 394.309 41.576 393.157 42.76C392.037 43.912 391.477 45.512 391.477 47.56C391.477 49.608 392.037 51.24 393.157 52.456C394.309 53.64 395.701 54.232 397.333 54.232C398.965 54.232 400.341 53.64 401.461 52.456C402.613 51.272 403.189 49.656 403.189 47.608ZM433.655 33.928C436.791 33.928 439.287 34.952 441.143 37C443.031 39.016 443.975 41.8 443.975 45.352V61H435.815V46.456C435.815 44.664 435.351 43.272 434.423 42.28C433.495 41.288 432.247 40.792 430.679 40.792C429.111 40.792 427.863 41.288 426.935 42.28C426.007 43.272 425.543 44.664 425.543 46.456V61H417.335V34.216H425.543V37.768C426.375 36.584 427.495 35.656 428.903 34.984C430.311 34.28 431.895 33.928 433.655 33.928ZM448.047 47.56C448.047 44.808 448.559 42.392 449.583 40.312C450.639 38.232 452.063 36.632 453.855 35.512C455.647 34.392 457.647 33.832 459.855 33.832C461.615 33.832 463.215 34.2 464.655 34.936C466.127 35.672 467.279 36.664 468.111 37.912V25.48H476.319V61H468.111V57.16C467.343 58.44 466.239 59.464 464.799 60.232C463.391 61 461.743 61.384 459.855 61.384C457.647 61.384 455.647 60.824 453.855 59.704C452.063 58.552 450.639 56.936 449.583 54.856C448.559 52.744 448.047 50.312 448.047 47.56ZM468.111 47.608C468.111 45.56 467.535 43.944 466.383 42.76C465.263 41.576 463.887 40.984 462.255 40.984C460.623 40.984 459.231 41.576 458.079 42.76C456.959 43.912 456.399 45.512 456.399 47.56C456.399 49.608 456.959 51.24 458.079 52.456C459.231 53.64 460.623 54.232 462.255 54.232C463.887 54.232 465.263 53.64 466.383 52.456C467.535 51.272 468.111 49.656 468.111 47.608Z" fill="white"/>
<path d="M15.6 25.304C19.152 25.304 22.256 26.008 24.912 27.416C27.568 28.824 29.616 30.808 31.056 33.368C32.528 35.896 33.264 38.824 33.264 42.152C33.264 45.448 32.528 48.376 31.056 50.936C29.616 53.496 27.552 55.48 24.864 56.888C22.208 58.296 19.12 59 15.6 59H2.976V25.304H15.6ZM15.072 51.896C18.176 51.896 20.592 51.048 22.32 49.352C24.048 47.656 24.912 45.256 24.912 42.152C24.912 39.048 24.048 36.632 22.32 34.904C20.592 33.176 18.176 32.312 15.072 32.312H11.184V51.896H15.072ZM41.979 29.432C40.539 29.432 39.355 29.016 38.427 28.184C37.531 27.32 37.083 26.264 37.083 25.016C37.083 23.736 37.531 22.68 38.427 21.848C39.355 20.984 40.539 20.552 41.979 20.552C43.387 20.552 44.539 20.984 45.435 21.848C46.363 22.68 46.827 23.736 46.827 25.016C46.827 26.264 46.363 27.32 45.435 28.184C44.539 29.016 43.387 29.432 41.979 29.432ZM46.059 32.216V59H37.851V32.216H46.059ZM64.0553 51.32L69.8633 32.216H78.5993L69.0953 59H58.9673L49.4633 32.216H58.2473L64.0553 51.32ZM86.1821 29.432C84.7421 29.432 83.5581 29.016 82.6301 28.184C81.7341 27.32 81.2861 26.264 81.2861 25.016C81.2861 23.736 81.7341 22.68 82.6301 21.848C83.5581 20.984 84.7421 20.552 86.1821 20.552C87.5901 20.552 88.7421 20.984 89.6381 21.848C90.5661 22.68 91.0301 23.736 91.0301 25.016C91.0301 26.264 90.5661 27.32 89.6381 28.184C88.7421 29.016 87.5901 29.432 86.1821 29.432ZM90.2621 32.216V59H82.0541V32.216H90.2621ZM112.53 31.928C115.666 31.928 118.162 32.952 120.018 35C121.906 37.016 122.85 39.8 122.85 43.352V59H114.69V44.456C114.69 42.664 114.226 41.272 113.298 40.28C112.37 39.288 111.122 38.792 109.554 38.792C107.986 38.792 106.738 39.288 105.81 40.28C104.882 41.272 104.418 42.664 104.418 44.456V59H96.2104V32.216H104.418V35.768C105.25 34.584 106.37 33.656 107.778 32.984C109.186 32.28 110.77 31.928 112.53 31.928ZM138.73 31.832C140.618 31.832 142.266 32.216 143.674 32.984C145.114 33.752 146.218 34.76 146.986 36.008V32.216H155.194V58.952C155.194 61.416 154.698 63.64 153.706 65.624C152.746 67.64 151.258 69.24 149.242 70.424C147.258 71.608 144.778 72.2 141.802 72.2C137.834 72.2 134.618 71.256 132.154 69.368C129.69 67.512 128.282 64.984 127.93 61.784H136.042C136.298 62.808 136.906 63.608 137.866 64.184C138.826 64.792 140.01 65.096 141.418 65.096C143.114 65.096 144.458 64.6 145.45 63.608C146.474 62.648 146.986 61.096 146.986 58.952V55.16C146.186 56.408 145.082 57.432 143.674 58.232C142.266 59 140.618 59.384 138.73 59.384C136.522 59.384 134.522 58.824 132.73 57.704C130.938 56.552 129.514 54.936 128.458 52.856C127.434 50.744 126.922 48.312 126.922 45.56C126.922 42.808 127.434 40.392 128.458 38.312C129.514 36.232 130.938 34.632 132.73 33.512C134.522 32.392 136.522 31.832 138.73 31.832ZM146.986 45.608C146.986 43.56 146.41 41.944 145.258 40.76C144.138 39.576 142.762 38.984 141.13 38.984C139.498 38.984 138.106 39.576 136.954 40.76C135.834 41.912 135.274 43.512 135.274 45.56C135.274 47.608 135.834 49.24 136.954 50.456C138.106 51.64 139.498 52.232 141.13 52.232C142.762 52.232 144.138 51.64 145.258 50.456C146.41 49.272 146.986 47.656 146.986 45.608Z" fill="white"/>
<ellipse cx="201" cy="25" rx="18" ry="25" fill="white"/>
<circle r="3.5" transform="matrix(-1 0 0 1 173 29)" stroke="white" stroke-width="3"/>
<circle r="1.5" transform="matrix(-1 0 0 1 165 20)" stroke="white" stroke-width="3"/>
<circle r="2.5" transform="matrix(-1 0 0 1 170 10)" stroke="white" stroke-width="3"/>
<rect x="206" y="43" width="21" height="31" rx="7" fill="white"/>
<rect x="206" y="46" width="18" height="27" rx="6" stroke="#5269FF" stroke-width="2"/>
<path d="M170 72.5C170 55.6553 183.655 42 200.5 42V42C217.345 42 231 55.6553 231 72.5V74H170V72.5Z" fill="white"/>
<rect x="196" y="32" width="10" height="6" rx="2" fill="#5269FF"/>
<path d="M181.604 18.6766C181.604 13.9159 185.463 10.0566 190.224 10.0566H200.943V20.5C200.943 25.8405 196.614 30.1698 191.274 30.1698V30.1698C185.933 30.1698 181.604 25.8405 181.604 20.5V18.6766Z" fill="#5269FF"/>
<path d="M200.943 10.0566H211.663C216.424 10.0566 220.283 13.9159 220.283 18.6766V20.5C220.283 25.8405 215.954 30.1698 210.613 30.1698V30.1698C205.273 30.1698 200.943 25.8405 200.943 20.5V10.0566Z" fill="#5269FF"/>
<path d="M200.943 23.6585C202.272 27.7289 206.099 30.6698 210.613 30.6698C216.23 30.6698 220.783 26.1167 220.783 20.5V18.6766C220.783 13.6398 216.7 9.55664 211.663 9.55664H200.943H190.224C185.187 9.55664 181.104 13.6398 181.104 18.6766V20.5C181.104 26.1167 185.657 30.6698 191.274 30.6698C195.788 30.6698 199.615 27.7289 200.943 23.6585Z" fill="#5269FF" stroke="#5269FF"/>
<path d="M200.443 10.5566V20.5C200.443 25.5644 196.338 29.6698 191.274 29.6698C186.209 29.6698 182.104 25.5644 182.104 20.5V18.6766C182.104 14.1921 185.739 10.5566 190.224 10.5566H200.443ZM201.443 20.5V10.5566H211.663C216.148 10.5566 219.783 14.1921 219.783 18.6766V20.5C219.783 25.5644 215.678 29.6698 210.613 29.6698C205.549 29.6698 201.443 25.5644 201.443 20.5Z" stroke="white"/>
<path d="M207.132 20.8869C207.132 19.6629 206.769 18.4664 206.089 17.4487C205.409 16.431 204.442 15.6377 203.312 15.1693C202.181 14.7009 200.936 14.5784 199.736 14.8172C198.535 15.0559 197.433 15.6454 196.567 16.5109C195.702 17.3764 195.112 18.4791 194.874 19.6796C194.635 20.8801 194.757 22.1244 195.226 23.2552C195.694 24.3861 196.487 25.3526 197.505 26.0326C198.523 26.7126 199.719 27.0756 200.943 27.0756L200.943 20.8869H207.132Z" fill="#5269FF"/>
<rect x="200.943" y="20.8867" width="1.54717" height="5.41509" rx="0.773585" fill="white"/>
<rect x="200.943" y="21.2102" width="1.54717" height="5.41509" rx="0.773585" transform="rotate(-12.0613 200.943 21.2102)" fill="white"/>
<mask id="path-18-inside-1" fill="white">
<path d="M194.755 21.2736C194.755 20.1261 195.095 19.0043 195.732 18.0502C196.37 17.0961 197.276 16.3525 198.336 15.9133C199.396 15.4742 200.563 15.3593 201.688 15.5832C202.814 15.807 203.848 16.3596 204.659 17.171C205.47 17.9824 206.023 19.0162 206.247 20.1417C206.471 21.2671 206.356 22.4337 205.917 23.4939C205.478 24.554 204.734 25.4601 203.78 26.0977C202.826 26.7352 201.704 27.0755 200.557 27.0755L200.557 21.2736H194.755Z"/>
</mask>
<path d="M194.755 21.2736C194.755 20.1261 195.095 19.0043 195.732 18.0502C196.37 17.0961 197.276 16.3525 198.336 15.9133C199.396 15.4742 200.563 15.3593 201.688 15.5832C202.814 15.807 203.848 16.3596 204.659 17.171C205.47 17.9824 206.023 19.0162 206.247 20.1417C206.471 21.2671 206.356 22.4337 205.917 23.4939C205.478 24.554 204.734 25.4601 203.78 26.0977C202.826 26.7352 201.704 27.0755 200.557 27.0755L200.557 21.2736H194.755Z" stroke="#5269FF" stroke-width="2" mask="url(#path-18-inside-1)"/>
<rect x="197" y="11" width="8" height="4" fill="#5269FF"/>
<path d="M202 33.6C202 33.2686 202.269 33 202.6 33H204C204.552 33 205 33.4477 205 34V35.5C205 35.7761 204.776 36 204.5 36V36C204.224 36 204 35.7761 204 35.5V35.1C204 34.6029 203.597 34.2 203.1 34.2H202.6C202.269 34.2 202 33.9314 202 33.6V33.6Z" fill="white"/>
<path d="M219 61.5C219 61.2239 219.224 61 219.5 61V61C219.776 61 220 61.2239 220 61.5V74H219V61.5Z" fill="#5269FF"/>
<path d="M182 61.5C182 61.2239 182.224 61 182.5 61V61C182.776 61 183 61.2239 183 61.5V74H182V61.5Z" fill="#5269FF"/>
<path d="M201 39C201.5 51.5 207 50.5 222 48" stroke="#5269FF" stroke-width="2"/>
<path d="M199 38H203V39C203 39.5523 202.552 40 202 40H200C199.448 40 199 39.5523 199 39V38Z" fill="#5269FF"/>
</svg>
