<svg width="198" height="25" viewBox="0 0 198 25" fill="none" xmlns="http://www.w3.org/2000/svg">
<path d="M6.84091 19C12.1591 19 15.5341 15.7273 15.5341 10.2727C15.5341 4.81818 12.1591 1.54545 6.77273 1.54545H0.125V19H6.84091ZM4.86364 14.9773V5.56818H6.53409C9.26136 5.56818 10.7614 6.625 10.7614 10.2727C10.7614 13.9205 9.26136 14.9773 6.67045 14.9773H4.86364ZM17.7947 19H22.4993V5.90909H17.7947V19ZM20.147 4.54545C21.4254 4.54545 22.4652 3.58239 22.4652 2.39773C22.4652 1.21307 21.4254 0.25 20.147 0.25C18.8686 0.25 17.8288 1.21307 17.8288 2.39773C17.8288 3.58239 18.8686 4.54545 20.147 4.54545ZM38.0895 5.90909H33.1463L31.0327 14.5682H30.8963L28.7827 5.90909H23.8395L28.2372 19H33.6918L38.0895 5.90909ZM39.4276 19H44.1321V5.90909H39.4276V19ZM41.7798 4.54545C43.0582 4.54545 44.098 3.58239 44.098 2.39773C44.098 1.21307 43.0582 0.25 41.7798 0.25C40.5014 0.25 39.4616 1.21307 39.4616 2.39773C39.4616 3.58239 40.5014 4.54545 41.7798 4.54545ZM51.2337 11.6364C51.2422 10.3409 51.9751 9.55682 53.1428 9.55682C54.3274 9.55682 55.0263 10.3409 55.0178 11.6364V19H59.7223V10.6477C59.7308 7.80114 57.9325 5.73864 55.1541 5.73864C53.228 5.73864 51.7024 6.74432 51.1314 8.39773H50.995V5.90909H46.5291V19H51.2337V11.6364ZM68.3516 24.1818C72.4936 24.1818 75.2379 22.2898 75.2379 18.9659V5.90909H70.5334V8.19318H70.4311C69.9197 6.86364 68.6925 5.73864 66.7493 5.73864C64.1584 5.73864 61.6357 7.71591 61.6357 12.4545C61.6357 16.9886 63.9879 18.8295 66.7834 18.8295C68.5561 18.8295 69.9538 18.0795 70.4652 16.75H70.6016V18.9659C70.6016 20.5085 69.7067 21.0114 68.4879 21.0114C67.4055 21.0114 66.6129 20.6875 66.4766 19.8523H61.9425C62.1214 22.375 64.4141 24.1818 68.3516 24.1818ZM68.522 15.4886C67.2266 15.4886 66.4766 14.3977 66.4766 12.4545C66.4766 10.5114 67.2266 9.35227 68.522 9.35227C69.8175 9.35227 70.6016 10.5114 70.6016 12.4545C70.6016 14.3636 69.8175 15.4886 68.522 15.4886ZM89.0597 19C94.3778 19 97.7528 15.7273 97.7528 10.2727C97.7528 4.81818 94.3778 1.54545 88.9915 1.54545H82.3438V19H89.0597ZM87.0824 14.9773V5.56818H88.7528C91.4801 5.56818 92.9801 6.625 92.9801 10.2727C92.9801 13.9205 91.4801 14.9773 88.8892 14.9773H87.0824ZM100.013 5.90909V19.3409C100.013 20.0994 99.6726 20.4318 98.5476 20.4318C98.3771 20.4318 98.2237 20.4233 98.0021 20.3977V23.875C98.3516 23.9006 98.6158 23.9091 98.9567 23.9091C102.408 23.9091 104.718 22.8864 104.718 19.4432V5.90909H100.013ZM102.366 4.54545C103.644 4.54545 104.684 3.58239 104.684 2.39773C104.684 1.21307 103.644 0.25 102.366 0.25C101.087 0.25 100.048 1.21307 100.048 2.39773C100.048 3.58239 101.087 4.54545 102.366 4.54545ZM115.604 13.2727C115.612 14.5682 114.862 15.3523 113.695 15.3523C112.51 15.3523 111.828 14.5682 111.82 13.2727V5.90909H107.115V14.2614C107.124 17.125 108.93 19.1705 111.683 19.1705C113.635 19.1705 115.135 18.1818 115.706 16.5114H115.842V19H120.308V5.90909H115.604V13.2727ZM122.701 19H127.406V12.1818C127.406 10.6818 128.437 9.69318 129.826 9.69318C130.312 9.69318 131.096 9.76989 131.565 9.93182V5.91761C131.19 5.80682 130.781 5.73864 130.371 5.73864C128.974 5.73864 127.883 6.55682 127.406 8.39773H127.269V5.90909H122.701V19ZM145.073 10.1705C144.954 7.40057 142.653 5.73864 138.869 5.73864C135.127 5.73864 132.817 7.27273 132.835 10C132.817 12.0625 134.156 13.3835 136.823 13.8523L139.141 14.2614C140.164 14.4489 140.624 14.7216 140.641 15.2159C140.624 15.7614 140.002 16.0682 139.141 16.0682C138.076 16.0682 137.326 15.608 137.198 14.7727H132.528C132.783 17.4574 135.102 19.2386 139.107 19.2386C142.729 19.2386 145.397 17.4744 145.414 14.6705C145.397 12.7358 144.102 11.6108 141.425 11.125L138.766 10.6477C137.769 10.4688 137.488 10.1108 137.505 9.72727C137.488 9.18182 138.161 8.875 138.971 8.875C139.9 8.875 140.675 9.36932 140.744 10.1705H145.073ZM151.921 1.54545H147.217V19H151.921V1.54545ZM157.966 19.2045C159.67 19.2045 160.957 18.625 161.75 17.1591H161.852V19H166.25V10.0341C166.25 7.61364 163.957 5.73864 160.216 5.73864C156.304 5.73864 154.378 7.78409 154.216 10.1705H158.545C158.656 9.3608 159.253 8.97727 160.148 8.97727C160.966 8.97727 161.545 9.35227 161.545 10.0341V10.0682C161.545 10.8267 160.71 11.0653 158.511 11.2273C155.81 11.4233 153.705 12.5142 153.705 15.3864C153.705 17.9943 155.46 19.2045 157.966 19.2045ZM159.5 16.2386C158.699 16.2386 158.136 15.8466 158.136 15.1136C158.136 14.4403 158.614 13.9205 159.705 13.75C160.455 13.6307 161.085 13.4773 161.58 13.2727V14.3636C161.58 15.5568 160.565 16.2386 159.5 16.2386ZM173.202 11.6364C173.211 10.3409 173.944 9.55682 175.112 9.55682C176.296 9.55682 176.995 10.3409 176.987 11.6364V19H181.691V10.6477C181.7 7.80114 179.901 5.73864 177.123 5.73864C175.197 5.73864 173.671 6.74432 173.1 8.39773H172.964V5.90909H168.498V19H173.202V11.6364ZM188.752 19.1705C190.593 19.1705 191.854 18.1818 192.4 16.8523H192.502V19H197.173V1.54545H192.468V8.19318H192.4C191.888 6.86364 190.661 5.73864 188.718 5.73864C186.127 5.73864 183.604 7.71591 183.604 12.4545C183.604 16.9886 185.957 19.1705 188.752 19.1705ZM190.491 15.5568C189.195 15.5568 188.445 14.3977 188.445 12.4545C188.445 10.5114 189.195 9.35227 190.491 9.35227C191.786 9.35227 192.57 10.5114 192.57 12.4545C192.57 14.3636 191.786 15.5568 190.491 15.5568Z" fill="#222222"/>
</svg>
